<?xml version="1.0" standalone="no"?>
<!DOCTYPE svg PUBLIC "-//W3C//DTD SVG 20010904//EN"
 "http://www.w3.org/TR/2001/REC-SVG-20010904/DTD/svg10.dtd">
<svg version="1.0" xmlns="http://www.w3.org/2000/svg"
 width="260.000000pt" height="260.000000pt" viewBox="0 0 260.000000 260.000000"
 preserveAspectRatio="xMidYMid meet">
<metadata>
Created by potrace 1.11, written by Peter Selinger 2001-2013
</metadata>
<g transform="translate(0.000000,260.000000) scale(0.100000,-0.100000)"
fill="#000000" stroke="none">
<path d="M1707 2447 c-36 -33 -37 -34 -19 -55 10 -11 34 -22 52 -24 27 -3 35
-9 35 -24 0 -10 5 -22 10 -26 6 -5 3 -8 -7 -8 -10 0 -15 -7 -14 -17 2 -10 -8
-28 -21 -40 -13 -13 -22 -23 -18 -23 3 0 -7 -13 -22 -30 -14 -16 -30 -30 -35
-30 -4 0 -17 -8 -28 -17 -21 -18 -90 -26 -90 -11 0 4 -6 8 -14 8 -8 0 -27 11
-42 23 l-27 24 41 41 c42 42 52 62 31 62 -6 0 -9 10 -7 23 4 20 -1 25 -39 33
-26 6 -43 7 -43 1 0 -5 -7 -7 -15 -3 -16 6 -70 -38 -71 -57 0 -7 6 -21 13 -32
24 -36 15 -62 -20 -56 -4 1 -33 -12 -64 -29 -30 -16 -68 -30 -82 -30 -15 0
-31 -4 -37 -10 -5 -5 -22 -11 -37 -12 -15 -1 -27 -5 -27 -8 0 -12 -61 -8 -87
5 -25 13 -29 13 -42 -3 -12 -16 -13 -15 -7 5 4 12 2 24 -4 28 -6 3 -8 10 -6
14 3 4 -3 17 -14 28 -18 20 -37 21 -102 5 -5 -1 -12 -2 -17 -2 -6 0 -10 -8
-10 -17 0 -10 -2 -53 -4 -97 -3 -69 -1 -81 17 -97 18 -18 25 -20 42 -18 4 0
10 -4 14 -10 7 -13 40 -4 40 10 0 5 7 9 15 9 17 0 38 46 32 70 -3 13 3 15 32
13 92 -9 107 -9 122 -2 17 9 50 16 119 25 25 3 48 8 53 11 7 4 9 -6 9 -52 0
-45 -2 -52 -14 -52 -32 -1 -136 -13 -163 -18 -16 -4 -45 -8 -63 -9 -18 -2 -35
-6 -39 -10 -3 -3 -15 -6 -25 -6 -10 0 -26 -4 -36 -8 -63 -31 -77 -40 -75 -50
1 -6 -10 -16 -26 -23 -25 -11 -28 -17 -24 -48 3 -20 9 -37 14 -39 5 -2 9 -12
9 -22 0 -10 5 -22 10 -25 7 -4 0 -17 -17 -33 -15 -14 -30 -24 -32 -23 -2 1 -7
-3 -11 -10 -5 -7 -16 -13 -27 -14 -34 -4 -81 -26 -87 -41 -3 -8 0 -14 7 -15 7
0 20 -2 29 -4 10 -2 20 1 24 6 3 5 10 7 15 4 5 -4 9 -2 9 3 0 5 6 9 13 9 6 0
31 12 54 26 54 34 74 34 94 -1 9 -16 48 -48 87 -73 39 -24 71 -51 72 -60 0
-21 -28 -77 -44 -86 -14 -9 -46 -54 -46 -65 0 -5 6 -7 12 -5 8 1 13 -12 14
-36 1 -32 -2 -38 -17 -34 -9 3 -23 1 -30 -4 -7 -4 -18 -5 -23 -1 -15 8 -77 9
-102 0 -12 -3 -26 -2 -33 5 -8 8 -11 8 -11 -2 0 -10 -3 -11 -13 -2 -9 7 -17 7
-24 0 -6 -6 -25 6 -56 40 -25 27 -48 47 -50 44 -7 -6 -136 26 -167 42 -53 26
-69 28 -67 5 1 -11 4 -20 7 -20 3 0 16 -21 30 -47 13 -27 28 -51 33 -54 12 -9
1 -55 -21 -87 -30 -42 -55 -102 -47 -110 4 -4 10 -2 12 5 2 7 11 9 19 6 8 -3
14 -1 14 4 0 5 24 15 53 22 28 8 57 16 62 20 6 3 19 6 30 7 47 2 74 16 96 49
15 22 30 34 40 32 9 -3 23 -1 30 4 7 4 21 3 31 -2 12 -6 18 -6 18 0 0 10 32 7
52 -5 7 -5 8 -3 3 6 -6 10 -4 11 11 6 22 -9 30 -10 62 -2 12 3 22 0 22 -6 0
-7 4 -7 13 -1 14 11 27 11 46 -1 10 -6 12 -5 7 2 -9 14 3 15 24 3 8 -6 19 -7
25 -3 17 11 35 11 35 0 0 -7 5 -7 13 1 10 8 20 4 42 -19 29 -30 38 -66 21 -88
-6 -9 -6 -16 0 -20 11 -7 11 -48 1 -76 -4 -9 -2 -16 3 -16 6 0 6 -9 1 -23 -5
-13 -6 -29 -2 -35 9 -14 7 -54 -3 -71 -5 -7 -4 -16 1 -20 10 -7 10 -48 0 -75
-4 -9 -3 -15 2 -12 5 4 7 -3 4 -14 -6 -22 -45 -39 -51 -21 -2 6 -7 9 -12 6 -5
-3 -19 -1 -32 4 -39 16 -62 24 -76 27 -23 4 -26 14 -15 44 12 31 8 40 -15 40
-10 0 -13 -8 -10 -30 3 -17 1 -33 -5 -37 -5 -3 -7 13 -6 38 3 38 1 43 -20 44
-12 1 -26 7 -30 13 -3 6 -12 8 -18 4 -9 -6 -8 -27 4 -90 9 -45 18 -80 21 -78
2 3 15 1 28 -4 19 -7 26 -5 33 9 11 19 55 19 67 0 3 -5 16 -9 29 -9 13 0 27
-5 30 -10 4 -6 11 -8 16 -5 5 4 9 2 9 -3 0 -10 -103 -26 -152 -25 -16 1 -28
-3 -28 -9 0 -5 -4 -7 -9 -4 -5 4 -21 2 -36 -4 -22 -8 -27 -7 -34 13 -6 14 -5
29 4 43 11 17 11 22 -4 31 -9 6 -25 7 -39 2 -23 -9 -29 -25 -11 -31 5 -2 12
-19 14 -38 2 -19 1 -27 -1 -18 -3 10 -9 18 -13 18 -4 0 -13 15 -20 33 -11 27
-18 33 -42 32 -16 0 -29 -4 -29 -8 0 -5 -4 -5 -10 -2 -15 9 -12 -6 4 -24 8 -9
17 -38 21 -65 3 -27 8 -53 11 -57 2 -4 -2 -14 -10 -21 -11 -12 -11 -17 0 -33
8 -10 14 -14 14 -8 0 6 11 9 25 8 28 -4 34 15 10 35 -9 7 -13 21 -10 31 3 9 2
20 -4 23 -5 3 -7 15 -4 26 4 15 12 5 37 -43 18 -34 39 -63 48 -65 20 -4 31 24
18 48 -8 15 -6 21 9 30 18 9 84 22 121 22 8 1 20 4 25 8 6 4 19 6 29 4 11 -1
28 2 38 7 13 7 18 6 18 -3 0 -9 3 -9 10 2 12 19 39 4 51 -28 6 -15 5 -21 -1
-17 -6 4 -7 -2 -1 -17 5 -13 5 -33 0 -45 -5 -14 -5 -23 1 -23 6 0 6 -9 1 -23
-5 -13 -6 -29 -2 -35 9 -14 7 -54 -3 -71 -5 -7 -4 -16 1 -20 19 -13 7 -96 -18
-125 -33 -38 -35 -78 -6 -110 33 -35 80 -35 112 0 14 15 25 36 25 48 0 24 -34
79 -43 70 -12 -12 -16 44 -14 216 l2 175 33 -1 c18 -1 40 -5 50 -10 21 -9 43
-15 60 -16 6 -1 12 -6 12 -11 0 -6 3 -8 6 -4 4 3 21 0 38 -7 17 -7 35 -12 40
-12 12 1 17 -34 7 -53 -11 -21 -3 -41 15 -41 8 0 14 -5 14 -11 0 -5 4 -8 9 -4
5 3 12 1 15 -4 13 -21 40 -4 43 27 4 34 -10 43 -25 16 -8 -14 -10 -14 -25 1
-18 17 -22 35 -9 35 4 0 13 -5 19 -11 9 -9 11 -3 9 21 -1 18 -11 39 -22 47
-13 11 -15 17 -7 20 18 7 28 4 29 -7 1 -5 2 -14 3 -19 0 -5 7 -11 15 -14 10
-4 12 3 10 24 -4 29 2 33 40 29 37 -4 64 10 74 37 10 31 -3 73 -24 73 -7 0
-14 4 -16 10 -1 5 -15 11 -30 12 -15 1 -24 6 -22 10 3 4 0 8 -5 8 -6 0 -11 5
-11 10 0 18 45 10 60 -10 21 -29 40 -25 34 7 -6 37 -27 51 -69 47 -43 -3 -62
-21 -61 -57 1 -16 -1 -30 -4 -32 -8 -5 -82 -17 -112 -19 -16 0 -28 -3 -28 -6
0 -3 -8 -6 -17 -6 -10 -1 -43 -4 -74 -8 -55 -7 -56 -7 -67 21 -6 17 -10 109
-10 233 1 200 2 205 25 228 26 26 63 37 63 19 0 -8 3 -8 8 -2 10 14 42 18 42
5 0 -5 5 -10 11 -10 5 0 8 3 6 8 -3 4 6 8 19 8 14 1 21 -2 17 -9 -4 -6 -1 -7
8 -2 18 12 69 14 75 3 3 -5 11 -5 17 1 20 16 23 16 40 3 11 -9 17 -10 22 -2 5
8 11 8 20 0 10 -8 19 -8 34 -1 26 14 34 14 25 -1 -5 -7 -3 -8 7 -3 18 12 69
14 75 3 3 -5 12 -3 21 3 12 10 16 10 24 -2 7 -12 9 -12 9 1 0 13 1 13 10 0 5
-8 6 -17 2 -20 -20 -15 -49 -100 -34 -100 4 1 32 14 62 30 30 17 61 30 68 30
6 0 12 5 12 11 0 5 4 8 9 4 5 -3 16 1 24 9 8 8 17 13 19 10 3 -2 22 3 44 13
21 9 45 18 52 19 46 9 44 16 -8 35 -30 10 -62 22 -70 26 -8 3 -18 7 -22 7 -3
1 -10 4 -14 9 -4 4 -16 7 -26 7 -10 0 -18 4 -18 10 0 5 -3 9 -7 8 -13 -3 -93
36 -93 45 0 4 -4 5 -10 2 -5 -3 -10 -2 -10 3 0 5 -7 9 -15 9 -9 0 -11 -4 -6
-11 9 -12 23 -63 19 -72 -2 -3 5 -10 15 -15 9 -6 17 -13 17 -18 0 -4 -122 -7
-272 -7 -270 0 -271 0 -296 23 -14 13 -35 22 -46 20 -25 -3 -68 -31 -61 -39 3
-3 -1 -8 -9 -11 -9 -4 -18 -2 -20 2 -3 4 -24 6 -46 4 -23 -2 -41 0 -41 6 -1 6
-2 17 -3 24 -1 6 3 18 8 26 6 8 10 16 9 18 -16 21 28 93 56 93 7 0 10 4 7 9
-3 5 2 12 11 15 16 7 53 -23 53 -44 0 -5 8 -10 18 -11 9 0 25 -2 35 -4 11 -2
23 7 31 24 8 15 24 27 36 28 29 2 33 7 34 43 1 16 4 30 8 30 5 0 7 3 7 8 -1 4
0 9 1 12 1 3 3 19 5 35 2 17 6 41 10 55 19 76 27 218 14 263 -7 26 -4 37 24
73 17 23 35 40 40 37 4 -2 7 0 7 4 0 15 44 36 80 38 40 2 77 19 101 47 20 22
30 23 23 3 -4 -8 -3 -22 0 -31 10 -26 36 8 30 41 -3 19 -1 24 7 19 8 -5 9 -3
4 5 -4 7 2 22 15 36 14 14 24 43 29 79 4 31 6 56 4 56 -3 0 3 7 12 16 12 13
21 14 43 6 69 -26 124 -4 101 40 -20 37 -46 68 -53 61 -3 -3 -6 1 -6 10 0 10
-6 14 -14 11 -8 -3 -17 -1 -21 5 -3 6 -30 11 -58 11 -45 0 -57 -5 -90 -33z
m-712 -1622 c1 -19 -1 -33 -4 -30 -4 2 -8 21 -9 41 -2 21 0 35 4 31 4 -4 8
-23 9 -42z m627 -88 c-6 -7 -9 -22 -6 -33 4 -14 1 -21 -10 -21 -9 0 -16 4 -16
9 0 5 -4 6 -10 3 -5 -3 -10 -1 -10 6 0 7 -3 9 -7 6 -3 -4 -11 -2 -18 3 -8 7
-11 3 -9 -13 1 -12 3 -22 4 -22 2 0 4 -9 5 -21 2 -19 -1 -20 -36 -10 -22 6
-39 13 -39 17 0 5 -9 6 -20 4 -11 -2 -20 1 -20 6 0 6 -4 8 -9 4 -5 -3 -12 -1
-16 4 -3 5 -14 8 -25 6 -13 -2 -17 1 -14 10 3 7 14 12 25 10 10 -2 19 -1 19 3
0 4 17 7 38 7 20 -1 42 1 47 4 17 9 38 13 78 13 20 1 37 5 37 10 0 4 5 8 11 8
8 0 8 -4 1 -13z m83 -23 c0 -20 -29 -21 -52 -2 -22 18 -14 27 20 24 24 -2 32
-7 32 -22z"/>
</g>
</svg>
